<svg width="24" height="24" viewBox="0 0 24 24" fill="none" xmlns="http://www.w3.org/2000/svg">
<path fill-rule="evenodd" clip-rule="evenodd" d="M13.5137 3.80601C14.5869 2.73125 16.3274 2.7306 17.4013 3.80454L19.8932 6.29639C20.958 7.36117 20.969 9.08493 19.918 10.1633L10.6849 19.6366C9.97933 20.3604 9.01167 20.7686 8.00124 20.7686L5.24909 20.7684C3.96984 20.7684 2.94823 19.702 3.00203 18.4229L3.12019 15.6139C3.15968 14.6749 3.54996 13.7849 4.2138 13.12L13.5137 3.80601ZM16.3415 4.866C15.8533 4.37784 15.0622 4.37814 14.5744 4.86667L12.9113 6.53227L17.1911 10.8121L18.8446 9.11554C19.3224 8.62537 19.3173 7.84184 18.8333 7.35785L16.3415 4.866ZM5.27446 14.1807L11.8514 7.59374L16.144 11.8863L9.61148 18.5888C9.18816 19.0231 8.60756 19.268 8.0013 19.268L5.24916 19.2679C4.82274 19.2679 4.4822 18.9124 4.50014 18.486L4.61829 15.677C4.64199 15.1136 4.87616 14.5796 5.27446 14.1807ZM20.5148 20.6953C20.9289 20.6953 21.2645 20.3594 21.2645 19.945C21.2645 19.5306 20.9289 19.1947 20.5148 19.1947H14.3931C13.9791 19.1947 13.6434 19.5306 13.6434 19.945C13.6434 20.3594 13.9791 20.6953 14.3931 20.6953H20.5148Z" fill="#9E9E9E"/>
</svg>
