<svg width="24" height="24" viewBox="0 0 24 24" fill="none" xmlns="http://www.w3.org/2000/svg">
<path d="M3 5C3 3.89543 3.89543 3 5 3H19C20.1046 3 21 3.89543 21 5V5.41751C21 6.17739 20.7116 6.90895 20.1932 7.46447L15.2379 12.7737C14.8922 13.144 14.7 13.6317 14.7 14.1383V17.682C14.7 18.0607 14.486 18.407 14.1472 18.5764L10.7472 20.2764C10.0823 20.6088 9.3 20.1253 9.3 19.382V14.1383C9.3 13.6317 9.10776 13.144 8.76211 12.7737L3.80684 7.46447C3.28836 6.90895 3 6.17739 3 5.41751V5Z" stroke="#9E9E9E" stroke-width="1.5"/>
</svg>
