<svg width="24" height="24" viewBox="0 0 24 24" fill="none" xmlns="http://www.w3.org/2000/svg">
<path d="M20.7994 10.7512L21.4575 10.3914L20.7994 10.7512ZM20.7994 12.3202L21.4574 12.6801L20.7994 12.3202ZM3.20058 10.7511L3.8586 11.111L3.20058 10.7511ZM3.20057 12.3201L2.54254 12.6799H2.54254L3.20057 12.3201ZM19.5236 7.84471C19.227 7.55554 18.7522 7.56154 18.463 7.85811C18.1738 8.15468 18.1798 8.62952 18.4764 8.91869L19.5236 7.84471ZM9.68628 16.4953C9.28505 16.3924 8.87638 16.6343 8.7735 17.0355C8.67062 17.4367 8.91249 17.8454 9.31372 17.9483L9.68628 16.4953ZM14.604 5.87679L14.4099 6.60123L14.604 5.87679ZM7.07264 16.2445L6.70374 16.8975L7.50475 15.6315L7.07264 16.2445ZM3.8586 11.111C5.43153 8.23483 8.4879 6.28564 12 6.28564V4.78564C7.91882 4.78564 4.36847 7.05251 2.54256 10.3912L3.8586 11.111ZM20.1414 11.9603C18.5685 14.8365 15.5121 16.7856 12 16.7856V18.2856C16.0812 18.2856 19.6315 16.0188 21.4574 12.6801L20.1414 11.9603ZM20.1414 11.1111C20.2862 11.3759 20.2862 11.6956 20.1414 11.9603L21.4574 12.6801C21.8475 11.9668 21.8475 11.1046 21.4575 10.3914L20.1414 11.1111ZM2.54256 10.3912C2.15249 11.1045 2.15248 11.9667 2.54254 12.6799L3.8586 11.9602C3.7138 11.6954 3.7138 11.3757 3.8586 11.111L2.54256 10.3912ZM18.4764 8.91869C19.1347 9.56052 19.6974 10.2991 20.1414 11.1111L21.4575 10.3914C20.9413 9.44744 20.2876 8.58968 19.5236 7.84471L18.4764 8.91869ZM12 16.7856C11.2002 16.7856 10.4251 16.6847 9.68628 16.4953L9.31372 17.9483C10.1732 18.1687 11.0735 18.2856 12 18.2856V16.7856ZM12 6.28564C12.8346 6.28564 13.6423 6.39555 14.4099 6.60123L14.7981 5.15234C13.905 4.91304 12.9668 4.78564 12 4.78564V6.28564ZM5.92995 14.526C5.09529 13.8034 4.39151 12.9347 3.8586 11.9602L2.54254 12.6799C3.16202 13.8127 3.97944 14.8214 4.94816 15.6601L5.92995 14.526ZM7.44154 15.5915C6.90181 15.2866 6.3956 14.9291 5.92995 14.526L4.94816 15.6601C5.48873 16.1281 6.07659 16.5432 6.70374 16.8975L7.44154 15.5915ZM5.00695 15.7061L6.64054 16.8575L7.50475 15.6315L5.87116 14.48L5.00695 15.7061ZM14.4099 6.60123C15.1269 6.79335 15.8096 7.06923 16.4471 7.41783L17.1668 6.10179C16.426 5.69664 15.6321 5.3758 14.7981 5.15234L14.4099 6.60123Z" fill="#9E9E9E"/>
<path d="M19.4644 4L4.46436 19" stroke="#9E9E9E" stroke-width="1.5" stroke-linecap="round" stroke-linejoin="round"/>
<path d="M9 11.5356C9 9.87879 10.3431 8.53564 12 8.53564" stroke="#9E9E9E" stroke-width="1.5" stroke-linecap="round"/>
</svg>
